<svg width="2265" height="2300" viewBox="0 0 2265 2300" fill="none" xmlns="http://www.w3.org/2000/svg">
<path d="M1951.45 950.49L1954.19 956.039L1956.79 961.756L1959.22 967.626L1961.5 973.664L1963.66 979.869L1965.62 986.276L1967.46 992.802L1969.11 999.531L1970.65 1006.41L1972.01 1013.49L1973.25 1020.72L1974.29 1028.12L1975.26 1035.48L1976.18 1042.61L1977.08 1049.54L1977.94 1056.2L1978.79 1062.66L1979.55 1068.91L1980.3 1074.87L1982.34 1091.48L1982.96 1096.59L1983.52 1101.43L1984.04 1106.05L1984.54 1110.46L1984.99 1114.6L1985.41 1118.56L1985.83 1122.26L1986.17 1125.75L1986.47 1129.01L1986.75 1132.03L1987 1134.81L1987.21 1137.4L1987.38 1139.72L1987.53 1141.84L1987.68 1145.36L1987.7 1146.8L1987.69 1148L1987.65 1148.96L1987.55 1149.7L1987.42 1150.2L1987.29 1150.49L1987.08 1150.54L1986.86 1150.37L1986.6 1149.94L1986.29 1149.32L1985.96 1148.46L1985.57 1147.38L1985.16 1146.06L1984.72 1144.5L1980.6 1182.97L1885.65 1082.54L1885.76 1076.82L1885.7 1071.2L1885.5 1065.75L1885.1 1060.42L1884.6 1055.24L1883.93 1050.17L1883.1 1045.28L1882.12 1040.48L1880.98 1035.86L1879.7 1031.33L1878.25 1026.99L1876.63 1022.75L1874.86 1018.65L1872.96 1014.71L1870.89 1010.88L1868.66 1007.19L1866.28 1003.63L1863.74 1000.21L1861.06 996.928L1858.19 993.797L1855.22 990.816L1852.04 987.958L1848.75 985.219L1845.25 982.603L1841.62 980.154L1837.86 977.824L1833.93 975.647L1829.84 973.607L1825.6 971.703L1821.2 969.936L1816.61 968.291L1811.91 966.796L1807.05 965.437L1802 964.201L1796.84 963.115L1791.48 962.152L1786.02 961.339L1780.36 960.648L1774.56 960.125L1768.59 959.706L1762.6 959.385L1756.56 959.051L1750.57 958.73L1738.63 958.149L1732.69 957.842L1720.85 957.288L1714.95 957.042L1703.2 956.515L1697.34 956.282L1691.5 956.08L1679.89 955.642L1668.31 955.265L1662.55 955.058L1656.83 954.914L1651.09 954.739L1639.7 954.415L1628.35 954.153L1617.09 953.918L1605.88 953.745L1600.3 953.64L1594.73 953.567L1583.65 953.482L1572.62 953.362L1567.15 953.363L1561.68 953.317L1556.21 953.318L1550.78 953.333L1545.36 953.3L1539.95 953.346L1537.86 952.887L1535.8 952.491L1533.8 952.187L1531.86 951.976L1529.93 951.844L1528.05 951.805L1526.22 951.827L1524.44 951.943L1522.71 952.15L1521.03 952.42L1519.35 952.769L1517.73 953.211L1516.17 953.745L1514.64 954.341L1513.17 955.03L1511.71 955.798L1510.31 956.659L1508.99 957.595L1507.69 958.61L1506.39 959.705L1505.18 960.874L1503.99 962.154L1502.87 963.478L1501.79 964.913L1500.73 966.409L1499.71 968.015L1498.75 969.666L1497.83 971.426L1496.98 973.262L1496.15 975.177L1495.33 977.172L1494.61 979.273L1493.9 981.404L1493.25 983.676L1492.62 985.98L1492.06 988.407L1491.54 990.896L1491.05 993.446L1490.6 996.107L1490.2 998.86L1490.1 998.882L1488.37 1005.77L1485.69 1038.29L1467.11 1048.59L1450.16 1056.02L1434.86 1060.61L1421.17 1062.38L1409.14 1061.26L1398.75 1057.3L1389.96 1050.5L1383.39 1041.6L1383.05 1041.42L1382.03 1040.35L1381.53 1038.95L1381.54 1038.65L1381.47 1038.65L1381.69 1034.52L1381.9 1030.44L1382.16 1026.44L1382.42 1022.5L1382.69 1018.64L1382.98 1014.8L1383.29 1011.08L1383.6 1007.41L1383.91 1003.81L1384.24 1000.25L1384.6 996.791L1384.96 993.386L1385.35 990.042L1385.74 986.777L1386.13 983.561L1386.56 980.406L1386.97 977.349L1387.44 974.336L1387.88 971.388L1388.86 965.728L1389.83 960.323L1390.35 957.706L1390.88 955.169L1391.45 952.693L1392.6 947.95L1393.18 945.681L1393.79 943.475L1394.42 941.348L1395.03 939.269L1395.66 937.269L1396.32 935.332L1396.99 933.474L1397.68 931.646L1398.4 929.929L1399.09 928.23L1399.81 926.64L1400.56 925.113L1401.69 922.846L1402.95 920.587L1404.28 918.325L1405.71 916.041L1407.24 913.783L1408.89 911.535L1410.62 909.282L1412.45 907.056L1414.4 904.839L1416.44 902.649L1418.63 900.499L1420.89 898.344L1423.29 896.23L1425.81 894.173L1428.43 892.142L1431.18 890.152L1434.08 888.201L1437.08 886.277L1440.21 884.442L1443.48 882.646L1446.89 880.891L1450.44 879.224L1454.1 877.614L1457.92 876.075L1461.91 874.607L1466 873.197L1470.28 871.888L1474.68 870.637L1479.25 869.488L1483.96 868.427L1488.83 867.437L1493.88 866.549L1499.08 865.78L1504.41 865.099L1509.97 864.533L1515.67 864.056L1521.52 863.698L1527.56 863.473L1533.79 863.35L1540.2 863.328L1544.56 863.372L1549.08 863.408L1553.71 863.453L1563.37 863.522L1568.39 863.546L1573.5 863.596L1578.75 863.607L1584.14 863.659L1589.66 863.67L1595.28 863.708L1601.03 863.707L1606.89 863.764L1612.89 863.781L1619.02 863.807L1625.27 863.794L1631.64 863.838L1638.15 863.843L1644.77 863.857L1651.5 863.898L1658.38 863.881L1665.36 863.891L1672.47 863.911L1679.72 863.922L1687.1 863.942L1694.59 863.94L1702.19 863.947L1709.93 863.963L1717.79 863.94L1725.77 863.975L1733.88 863.97L1742.12 863.974L1750.46 863.956L1785.12 863.941L1794.11 863.951L1803.24 863.922L1812.45 863.92L1819.48 864.71L1826.36 865.716L1833.09 866.858L1839.66 868.185L1846.07 869.649L1852.34 871.328L1858.43 873.161L1864.42 875.143L1870.19 877.297L1875.85 879.649L1881.36 882.137L1886.7 884.81L1891.91 887.65L1896.94 890.644L1901.83 893.854L1906.56 897.2L1911.14 900.682L1915.58 904.38L1919.84 908.232L1923.96 912.251L1927.95 916.437L1931.77 920.808L1935.42 925.332L1938.93 930.024L1942.3 934.883L1945.5 939.896L1948.55 945.125L1951.45 950.49Z" fill="#333333" fill-opacity="0.08"/>
<path d="M1535.63 982.368C1596.92 950.65 1622.12 974.945 1611.19 1055.32C1600.26 1135.65 1548.09 1175.67 1454.65 1175.37C1225.79 1152.6 1085.49 1100.05 1033.76 1017.65C982.036 935.26 999.121 869.524 1084.98 820.512L1103.12 868.28L1094.48 963.749C1120.29 987.244 1155.72 1008.44 1200.82 1027.41C1268.49 1055.83 1393.15 1072.77 1463.44 1067.39C1510.29 1063.8 1530.54 1037.8 1524.16 989.413L1535.63 982.368Z" fill="#333333" fill-opacity="0.08"/>
<path d="M1448.51 864.334L1448.53 865.21L1448.5 865.995L1448.34 866.691L1448.08 867.36L1447.73 867.954L1447.3 868.522L1446.71 869.049L1446.05 869.581L1445.3 870.086L1444.41 870.631L1443.45 871.18L1442.33 871.786L1441.12 872.396L1439.78 873.093L1438.32 873.862L1436.77 874.731L1435.07 875.688L1433.23 876.733L1431.28 877.928L1429.18 879.258L1426.96 880.708L1424.62 882.356L1422.13 884.139L1419.5 886.139L1416.73 888.306L1413.82 890.688L1410.76 893.335L1407.56 896.148L1404.2 899.274L1400.7 902.616L1397.04 906.222L1394.64 908.672L1392.35 910.972L1390.23 913.166L1388.22 915.211L1386.98 916.526L1361.3 910.514L1361.28 910.611L1252.86 885.268L1252.28 881.115L1251.68 877.06L1251.11 873.114L1249.88 865.532L1249.28 861.908L1248.65 858.382L1248.02 854.983L1247.4 851.663L1246.75 848.489L1246.09 845.363L1245.45 842.396L1243.42 834.076L1242.7 831.496L1242 829.075L1241.29 826.703L1240.59 824.458L1239.88 822.342L1239.15 820.322L1238.4 818.399L1237.65 816.604L1236.92 814.888L1236.13 813.287L1235.37 811.795L1234.59 810.401L1233.82 809.135L1233.02 807.965L1232.2 806.893L1231.42 805.93L1230.58 805.083L1229.77 804.345L1229.19 803.515L1229.86 803.014L1231.73 802.846L1234.68 803.033L1238.66 803.482L1243.61 804.229L1249.39 805.232L1255.99 806.493L1263.31 807.954L1271.24 809.637L1279.71 811.497L1288.69 813.552L1298.06 815.713L1317.65 820.483L1327.75 823.003L1337.9 825.615L1348.09 828.29L1358.21 830.969L1368.16 833.704L1377.9 836.404L1387.31 839.09L1396.32 841.766L1404.89 844.371L1412.92 846.926L1420.32 849.357L1427.04 851.698L1432.96 853.892L1438.03 855.925L1442.17 857.802L1445.3 859.497L1447.33 861.013L1448.19 862.275L1448.39 863.381L1448.51 864.334Z" fill="#333333" fill-opacity="0.08"/>
<path d="M1860.14 1278.95L1846.29 1279.89L1819.63 1281.63L1794.35 1283.2L1770.41 1284.63L1758.96 1285.23L1747.83 1285.85L1726.58 1286.91L1716.51 1287.39L1706.73 1287.82L1688.2 1288.57L1679.48 1288.86L1671.04 1289.11L1662.98 1289.34L1655.23 1289.54L1647.85 1289.65L1640.79 1289.77L1634.08 1289.81L1627.67 1289.83L1621.65 1289.79L1615.94 1289.72L1610.59 1289.6L1605.54 1289.47L1600.89 1289.27L1596.52 1289.01L1592.53 1288.74L1588.82 1288.42L1585.53 1288.06L1582.52 1287.65L1579.88 1287.19L1577.53 1286.72L1575.58 1286.17L1573.94 1285.61L1572.65 1284.99L1570.97 1284.11L1569.33 1283.29L1567.71 1282.59L1566.13 1281.94L1564.55 1281.42L1562.99 1280.93L1561.44 1280.52L1559.88 1280.16L1558.35 1279.86L1556.77 1279.6L1555.17 1279.36L1553.58 1279.14L1550.28 1278.78L1548.56 1278.61L1546.81 1278.45L1545.01 1278.28L1543.14 1278.06L1541.2 1277.85L1539.24 1277.61L1537.16 1277.31L1535.02 1276.96L1532.79 1276.59L1530.46 1276.15L1528.06 1275.63L1525.52 1275.02L1522.91 1274.37L1520.18 1273.57L1517.33 1272.73L1514.34 1271.76L1511.21 1270.66L1507.96 1269.46L1504.56 1268.15L1501.03 1266.7L1497.33 1265.11L1493.47 1263.39L1489.46 1261.47L1485.28 1259.4L1480.89 1257.2L1476.35 1254.81L1473.31 1253.14L1470.33 1251.48L1467.44 1249.86L1464.61 1248.27L1461.85 1246.65L1459.19 1245.09L1456.62 1243.53L1451.68 1240.43L1449.33 1238.9L1447.05 1237.37L1444.88 1235.89L1442.74 1234.4L1440.7 1232.93L1438.75 1231.49L1436.85 1230.06L1435.05 1228.61L1433.32 1227.21L1431.66 1225.85L1430.1 1224.46L1428.59 1223.1L1427.18 1221.75L1425.84 1220.41L1424.59 1219.09L1423.4 1217.78L1422.29 1216.5L1421.27 1215.21L1420.34 1213.96L1419.46 1212.71L1418.65 1211.46L1417.94 1210.24L1417.32 1209.04L1416.76 1207.86L1416.26 1206.68L1415.87 1205.52L1415.57 1204.38L1415.29 1203.23L1415.13 1202.14L1415.05 1201.04L1415.04 1199.94L1419.9 1199.51L1424.65 1199.1L1429.29 1198.63L1433.83 1198.19L1442.57 1197.29L1446.79 1196.78L1450.91 1196.3L1454.9 1195.8L1458.76 1195.3L1462.54 1194.77L1466.21 1194.21L1469.79 1193.68L1473.23 1193.13L1476.59 1192.56L1479.82 1191.99L1482.92 1191.4L1485.95 1190.81L1488.84 1190.19L1491.65 1189.57L1496.92 1188.33L1499.39 1187.67L1501.78 1187.01L1504.02 1186.36L1506.16 1185.68L1508.21 1184.97L1510.14 1184.26L1511.96 1183.57L1513.68 1182.85L1515.29 1182.12L1516.79 1181.36L1518.18 1180.6L1519.45 1179.86L1520.62 1179.06L1521.29 1178.61L1526.09 1176.17L1530.45 1172.94L1533.6 1169.6L1533.78 1169.19L1534.14 1169.31L1534.16 1169.34L1537.42 1170.61L1540.69 1171.84L1543.99 1173.04L1547.28 1174.17L1550.63 1175.26L1553.96 1176.32L1557.33 1177.32L1560.73 1178.29L1564.09 1179.21L1567.5 1180.09L1570.93 1180.92L1574.36 1181.7L1577.86 1182.45L1581.31 1183.13L1584.8 1183.8L1588.32 1184.41L1591.82 1184.98L1595.36 1185.48L1598.93 1185.97L1602.46 1186.4L1606.05 1186.79L1609.65 1187.13L1613.26 1187.42L1616.92 1187.68L1620.55 1187.88L1624.21 1188.06L1627.9 1188.17L1631.58 1188.26L1635.31 1188.3L1639.03 1188.27L1642.78 1188.22L1646.55 1188.12L1650.32 1187.98L1654.1 1187.78L1657.91 1187.57L1661.71 1187.28L1665.57 1186.95L1669.4 1186.59L1673.28 1186.17L1677.19 1185.73L1682.95 1185.04L1688.57 1184.44L1694.03 1183.9L1699.35 1183.39L1704.54 1182.93L1709.56 1182.57L1714.46 1182.2L1719.18 1181.94L1723.78 1181.66L1728.24 1181.48L1732.51 1181.32L1736.68 1181.18L1740.69 1181.1L1744.55 1181.03L1748.25 1181.02L1751.82 1181L1755.25 1181.01L1758.53 1181.08L1761.66 1181.12L1764.63 1181.21L1767.48 1181.29L1770.19 1181.41L1772.74 1181.51L1775.13 1181.61L1777.41 1181.74L1779.52 1181.85L1781.49 1181.96L1783.32 1182.07L1786.57 1182.29L1787.96 1182.37L1789.21 1182.41L1790.3 1182.46L1791.27 1182.5L1792.08 1182.47L1792.79 1182.47L1793.33 1182.39L1793.7 1182.29L1793.95 1182.18L1794.08 1182.01L1794.17 1181.96L1794.36 1182.01L1794.67 1182.2L1795.11 1182.53L1795.65 1182.96L1796.32 1183.53L1797.11 1184.24L1798.03 1185.03L1799.04 1185.98L1800.16 1187.04L1801.41 1188.23L1802.8 1189.54L1804.28 1190.98L1805.9 1192.53L1807.62 1194.24L1809.47 1196.04L1811.42 1197.99L1813.5 1200.03L1815.67 1202.23L1818 1204.54L1820.4 1206.98L1822.96 1209.53L1828.42 1215.03L1831.3 1217.98L1834.31 1221.02L1837.44 1224.2L1844.06 1230.94L1847.55 1234.5L1854.87 1242L1862.65 1249.98L1866.71 1254.17L1875.19 1262.91L1879.61 1267.47L1884.15 1272.17L1888.82 1276.96L1860.14 1278.95Z" fill="#333333" fill-opacity="0.08"/>
<path d="M1104.19 1112.85L1102.21 1113.43L1099.87 1114.1L1097.14 1114.8L1094.08 1115.57L1090.66 1116.35L1086.96 1117.14L1082.96 1117.93L1078.63 1118.72L1074.07 1119.44L1069.26 1120.13L1064.21 1120.77L1058.98 1121.3L1053.51 1121.76L1047.88 1122.08L1042.08 1122.32L1036.13 1122.4L1030.05 1122.3L1023.87 1122.06L1017.58 1121.63L1011.23 1120.97L1004.79 1120.12L998.3 1119.04L991.81 1117.71L985.272 1116.11L978.764 1114.24L972.285 1112.09L965.844 1109.62L959.472 1106.81L953.138 1103.69L946.901 1100.2L940.788 1096.34L934.771 1092.12L928.918 1087.47L923.208 1082.47L917.671 1076.98L912.345 1071.06L907.21 1064.69L902.295 1057.84L885.991 1033.52L882.671 1028.5L879.304 1023.47L858.533 991.945L851.42 981.001L847.778 975.454L840.495 964.232L836.834 958.526L833.107 952.777L829.371 946.947L825.587 941.105L810.262 917.17L806.364 911.014L802.438 904.876L778.314 866.737L770.083 853.587L765.882 846.937L757.462 833.478L753.243 826.67L846.487 800.853L950.907 978.827L952.442 981.457L954.016 984.02L955.581 986.504L957.136 988.91L958.711 991.218L960.324 993.46L961.927 995.622L963.521 997.706L965.135 999.692L966.739 1001.6L968.353 1003.46L969.986 1005.22L971.639 1006.88L973.282 1008.47L974.916 1009.98L976.588 1011.42L978.279 1012.76L979.933 1014.04L981.634 1015.21L983.317 1016.34L985.019 1017.38L986.721 1018.29L988.452 1019.19L990.154 1019.97L991.895 1020.69L993.607 1021.3L995.358 1021.84L997.099 1022.3L998.879 1022.7L1000.65 1023.01L1002.42 1023.2L1004.2 1023.34L1005.99 1023.43L1007.78 1023.4L1009.58 1023.31L1011.4 1023.13L1013.21 1022.87L1015.04 1022.51L1016.88 1022.11L1018.32 1021.69L1019.03 1023.17L1021.18 1027.38L1023.64 1031.78L1026.4 1036.34L1029.46 1041.01L1032.8 1045.8L1036.4 1050.7L1040.28 1055.67L1044.38 1060.68L1048.73 1065.71L1053.3 1070.78L1057.99 1075.72L1062.68 1080.41L1067.34 1084.86L1072.01 1089.06L1076.58 1092.97L1081.07 1096.64L1085.47 1100.02L1089.74 1103.05L1093.91 1105.81L1097.88 1108.22L1101.69 1110.26L1105.27 1111.98L1106.02 1112.24L1105.77 1112.35L1104.19 1112.85Z" fill="#333333" fill-opacity="0.08"/>
<path d="M1196.44 777.644L1199.92 783.887L1203.24 790.138L1206.45 796.381L1209.47 802.649L1212.35 808.878L1215.07 815.115L1217.64 821.36L1220.09 827.597L1222.34 833.828L1224.47 840.051L1226.44 846.282L1228.27 852.521L1229.92 858.739L1231.44 864.947L1232.79 871.181L1234.01 877.406L1235.06 883.608L1235.96 889.819L1236.7 896.039L1237.32 902.25L1237.79 908.469L1238.06 914.683L1238.21 920.888L1238.23 927.084L1238.05 933.275L1237.74 939.506L1237.28 945.696L1236.66 951.865L1235.9 958.072L1234.97 964.258L1233.93 970.465L1232.68 976.636L1231.32 982.829L1229.79 989L1228.13 995.21L1226.29 1001.4L1224.31 1007.55L1115.17 969.8L1117.13 966.257L1118.99 962.735L1120.77 959.218L1122.49 955.736L1124.11 952.275L1125.63 948.837L1127.11 945.416L1128.49 942.017L1129.77 938.639L1130.97 935.266L1132.11 931.928L1133.15 928.612L1134.13 925.331L1135 922.072L1135.8 918.817L1136.49 915.584L1137.13 912.386L1137.69 909.192L1138.15 906.02L1138.55 902.883L1138.82 899.737L1139.06 896.657L1139.2 893.551L1139.25 890.497L1139.23 887.447L1139.13 884.45L1138.95 881.458L1138.66 878.487L1138.29 875.521L1137.87 872.589L1137.35 869.679L1136.72 866.792L1136.06 863.921L1135.29 861.073L1134.43 858.246L1133.5 855.455L1132.5 852.668L1131.39 849.902L1130.18 847.159L1128.94 844.433L1123.54 836.348L1093 790.452L1088.19 783.198L1083.45 776.115L1069.76 755.554L1065.38 748.93L1061.05 742.448L1056.82 736.071L1052.63 729.835L1044.55 717.699L1040.66 711.799L1033.05 700.436L1025.8 689.531L1018.86 679.121L1015.51 674.116L1012.27 669.218L1009.05 664.43L1005.96 659.778L1002.94 655.251L1000 650.846L997.139 646.566L994.351 642.409L991.666 638.357L989.03 634.447L986.497 630.643L984.06 626.994L981.679 623.437L979.374 620.004L977.192 616.707L974.953 613.573L972.638 610.7L970.226 608.055L967.709 605.688L965.096 603.549L962.387 601.64L959.582 599.959L956.672 598.556L953.666 597.382L950.583 596.468L947.376 595.8L944.073 595.361L940.674 595.151L937.198 595.201L933.598 595.498L929.902 596.023L926.129 596.808L922.231 597.84L918.238 599.101L914.168 600.621L910.002 602.371L905.712 604.367L901.345 606.623L896.863 609.077L892.294 611.839L887.611 614.799L882.851 618.02L877.995 621.469L873.033 625.195L867.976 629.151L862.794 633.353L857.545 637.766L852.191 642.457L846.74 647.377L841.166 652.543L835.542 657.952L829.766 663.624L823.942 669.539L818.003 675.652L811.959 682.042L721.088 692.154L707.258 693.5L706.967 691.935L706.574 689.241L706.239 686.513L706.027 683.793L705.891 681.07L705.803 678.359L705.801 675.596L705.941 672.873L706.11 670.132L706.384 667.37L706.735 664.603L707.18 661.863L707.682 659.088L708.28 656.339L708.963 653.538L709.742 650.763L710.597 647.984L711.528 645.201L712.564 642.396L713.666 639.635L714.854 636.822L716.119 634.004L717.478 631.213L718.924 628.369L720.436 625.57L722.052 622.749L723.745 619.923L725.514 617.093L727.388 614.241L729.31 611.403L731.336 608.543L733.458 605.709L735.636 602.841L737.939 599.981L740.27 597.104L742.725 594.236L745.256 591.364L747.863 588.487L750.575 585.589L753.334 582.703L754.833 581.358L756.389 579.978L758.03 578.545L759.777 577.09L761.581 575.599L763.442 574.074L765.388 572.496L767.44 570.896L769.567 569.292L771.762 567.605L774.033 565.913L776.408 564.199L778.822 562.42L781.341 560.618L783.936 558.812L786.598 556.923L789.364 555.012L792.207 553.097L795.088 551.115L798.074 549.112L810.837 540.766L821.224 534.133L828.54 529.557L832.346 527.221L836.161 524.836L840.128 522.442L844.134 519.983L856.638 512.434L865.384 507.235L874.482 501.904L879.07 499.3L883.666 496.904L888.223 494.701L892.799 492.657L897.308 490.825L901.855 489.182L906.353 487.781L910.851 486.508L915.348 485.491L919.817 484.619L924.265 483.972L928.704 483.501L933.104 483.224L937.513 483.154L941.884 483.277L946.292 483.591L950.632 484.116L954.992 484.799L959.332 485.707L963.633 486.809L967.924 488.087L972.224 489.573L976.486 491.252L980.738 493.107L984.97 495.187L989.191 497.444L993.404 499.876L997.596 502.534L1001.75 505.385L1005.94 508.426L1010.09 511.66L1014.21 515.089L1018.33 518.724L1022.44 522.536L1026.52 526.541L1030.6 530.754L1034.65 535.161L1038.68 539.744L1042.73 544.534L1046.73 549.517L1049.65 553.763L1052.56 558.057L1058.54 566.764L1064.59 575.723L1067.7 580.277L1093.35 618.459L1096.67 623.481L1100.04 628.516L1106.83 638.807L1110.29 643.997L1127.93 670.806L1131.53 676.34L1138.85 687.495L1142.54 693.184L1146.27 698.885L1157.61 716.382L1161.46 722.269L1165.34 728.266L1169.19 734.281L1181.07 752.673L1185.05 758.904L1189.01 765.153L1192.81 771.41L1196.44 777.644Z" fill="#333333" fill-opacity="0.08"/>
<path d="M646.897 743.36C646.881 756.681 625.331 785.946 582.313 831.197C667.655 823.118 747.466 810.652 821.795 793.812C896.095 776.989 933.58 735.688 934.239 669.957C928.887 637.815 920.499 619.148 909.105 613.937C897.73 608.757 868.386 636.172 821.091 696.212L647.33 723.913C647.073 723.56 646.932 730.069 646.897 743.36Z" fill="#333333" fill-opacity="0.08"/>
<path d="M425.864 811.565C405.977 791.366 387.759 752.578 371.313 695.18C354.838 637.799 380.326 595.825 447.806 569.24L790.738 528.821C771.045 543.59 752.87 556.79 736.222 568.372C719.575 579.953 703.046 600.903 686.635 631.223C707.79 629.038 662.59 631.78 551.014 639.548C439.448 647.267 421.961 685.01 498.58 752.759L425.864 811.565Z" fill="#333333" fill-opacity="0.08"/>
<path d="M304.85 1029.27C292.774 1044.38 214.003 1073.82 167.981 1073.75C121.969 1073.63 103.929 996.114 101.61 965.64C99.3194 935.149 132.325 905.997 165.731 869.539C188.03 845.217 254.61 794.899 365.529 718.551L400.432 803.447C315.625 864.955 255.573 909.734 220.247 937.801C184.95 965.851 183.62 978.831 216.259 976.741C383.457 856.399 479.078 785.487 503.15 764.117C539.277 732.027 521.545 743.254 499.726 737.17C485.196 733.077 474.581 710.46 467.91 669.304C519.961 650.703 563.916 650.936 599.698 670.009C653.386 698.675 636.632 732.863 624.649 766.801C616.628 789.417 598.731 809.294 570.918 826.369C401.593 951.589 312.904 1019.22 304.85 1029.27Z" fill="#333333" fill-opacity="0.08"/>
<path d="M2196.86 1438.97C2210.55 1453.44 2211.07 1475.92 2197.98 1489.18C2188.08 1499.18 2182.1 1505.23 2172.22 1515.25C2159.14 1528.47 2137.41 1527.48 2123.69 1513.02C2040.32 1424.96 1815.02 1187.1 1731.66 1099.08C1717.92 1084.59 1717.4 1062.11 1730.51 1048.88C1740.39 1038.86 1746.37 1032.8 1756.27 1022.81C1769.36 1009.54 1791.08 1010.59 1804.8 1025.04C1888.17 1113.1 2113.47 1350.96 2196.86 1438.97Z" fill="#333333" fill-opacity="0.08"/>
</svg>
