<svg width="32" height="32" viewBox="0 0 32 32" fill="none" xmlns="http://www.w3.org/2000/svg">
<path d="M0 28.39L19.7794 8.65953L23.3984 12.2696L3.62008 32L0 28.39Z" fill="#060606"/>
<path d="M4.87281 26.9885L8.09053 23.7787L12.7632 28.4409L9.54552 31.6507L4.87281 26.9885Z" fill="#060606"/>
<path d="M8.81801 23.053L12.0357 19.8433L16.7084 24.5055L13.4918 27.7142L8.81801 23.053Z" fill="#060606"/>
<path d="M24.513 0.0271186L24.8414 0.0607455L25.1665 0.106305L25.4863 0.165966L25.8027 0.236475L26.1148 0.32L26.4204 0.415458L26.7216 0.521762L27.0174 0.640001L27.3066 0.769084L27.5904 0.909017L27.8677 1.0598L28.1385 1.22034L28.4028 1.39064L28.6594 1.57071L28.9084 1.76054L29.1509 1.96014L29.3847 2.16732L29.6098 2.38427L29.8273 2.60881L30.035 2.84203L30.2351 3.08393L30.4254 3.33234L30.6059 3.58834L30.7766 3.85193L30.9387 4.12203L31.0887 4.39864L31.229 4.68176L31.3584 4.97031L31.4769 5.26536L31.5835 5.56583L31.6792 5.87064L31.7629 6.18196L31.8336 6.49763L31.8934 6.81654L31.9391 7.14088L31.9728 7.46956L31.9935 7.80041L32 8.13559L31.9935 8.47078L31.9728 8.80271L31.9391 9.13031L31.8934 9.45464L31.8336 9.77465L31.7629 10.0903L31.6792 10.4005L31.5835 10.7064L31.4769 11.0069L31.3584 11.3009L31.229 11.5905L31.0887 11.8736L30.9387 12.1502L30.7766 12.4203L30.6059 12.6828L30.4254 12.9388L30.2351 13.1883L30.035 13.4292L29.8273 13.6624L29.6098 13.888L29.3847 14.1039L29.1509 14.3121L28.9084 14.5106L28.6594 14.7005L28.4028 14.8816L28.1385 15.0519L27.8677 15.2125L27.5904 15.3633L27.3066 15.5021L27.0174 15.6312L26.7216 15.7494L26.4204 15.8568L26.1148 15.9512L25.8027 16.0347L25.4863 16.1063L25.1665 16.1649L24.8414 16.2115L24.513 16.2441L24.1802 16.2647L23.8442 16.2712L23.5082 16.2647L23.1754 16.2441L22.847 16.2115L22.5219 16.1649L22.2011 16.1063L21.8847 16.0347L21.5737 15.9512L21.267 15.8568L20.9658 15.7494L20.6711 15.6312L20.3807 15.5021L20.0969 15.3633L19.8196 15.2125L19.5488 15.0519L19.2857 14.8816L19.0291 14.7005L18.7789 14.5106L18.5375 14.3121L18.3037 14.1039L18.0786 13.888L17.8611 13.6624L17.6524 13.4292L17.4534 13.1883L17.2631 12.9388L17.0815 12.6828L16.9107 12.4203L16.7498 12.1502L16.5986 11.8736L16.4594 11.5905L16.33 11.3009L16.2115 11.0069L16.1038 10.7064L16.0092 10.4005L15.9255 10.0903L15.8537 9.77465L15.795 9.45464L15.7483 9.13031L15.7156 8.80271L15.695 8.47078L15.6884 8.13559L15.695 7.80041L15.7156 7.46956L15.7483 7.14088L15.795 6.81654L15.8537 6.49763L15.9255 6.18196L16.0092 5.87064L16.1038 5.56583L16.2115 5.26536L16.33 4.97031L16.4594 4.68176L16.5986 4.39864L16.7498 4.12203L16.9107 3.85193L17.0815 3.58834L17.2631 3.33234L17.4534 3.08393L17.6524 2.84203L17.8611 2.60881L18.0786 2.38427L18.3037 2.16732L18.5375 1.96014L18.7789 1.76054L19.0291 1.57071L19.2857 1.39064L19.5488 1.22034L19.8196 1.0598L20.0969 0.909017L20.3807 0.769084L20.6711 0.640001L20.9658 0.521762L21.267 0.415458L21.5737 0.32L21.8847 0.236475L22.2011 0.165966L22.5219 0.106305L22.847 0.0607455L23.1754 0.0271186L23.5082 0.00759401L23.8442 0L24.1802 0.00759401L24.513 0.0271186ZM25.0078 4.36176L24.8653 4.38888L24.7272 4.42685L24.5935 4.47458L24.4652 4.53207L24.3412 4.59824L24.2237 4.67309L24.1117 4.75661L24.0063 4.84773L23.9084 4.94536L23.817 5.05058L23.7333 5.1623L23.6583 5.27946L23.5919 5.40312L23.5343 5.53112L23.4865 5.66454L23.4484 5.8023L23.4212 5.94441L23.4038 6.08976L23.3984 6.23729L23.4038 6.3859L23.4212 6.53125L23.4484 6.67227L23.4865 6.81003L23.5343 6.94346L23.5919 7.07254L23.6583 7.19512L23.7333 7.31336L23.817 7.42509L23.9084 7.52922L24.0063 7.62793L24.1117 7.71905L24.2237 7.80149L24.3412 7.87634L24.4652 7.94251L24.5935 8L24.7272 8.04773L24.8653 8.0857L25.0078 8.11281L25.1535 8.13017L25.3014 8.13559L25.4504 8.13017L25.5961 8.11281L25.7374 8.0857L25.8756 8.04773L26.0093 8L26.1387 7.94251L26.2616 7.87634L26.3801 7.80149L26.491 7.71905L26.5965 7.62793L26.6955 7.52922L26.7868 7.42509L26.8695 7.31336L26.9445 7.19512L27.0108 7.07254L27.0685 6.94346L27.1163 6.81003L27.1544 6.67227L27.1816 6.53125L27.199 6.3859L27.2044 6.23729L27.199 6.08976L27.1816 5.94441L27.1544 5.8023L27.1163 5.66454L27.0685 5.53112L27.0108 5.40312L26.9445 5.27946L26.8695 5.1623L26.7868 5.05058L26.6955 4.94536L26.5965 4.84773L26.491 4.75661L26.3801 4.67309L26.2616 4.59824L26.1387 4.53207L26.0093 4.47458L25.8756 4.42685L25.7374 4.38888L25.5961 4.36176L25.4504 4.34549L25.3014 4.33898L25.1535 4.34549L25.0078 4.36176Z" fill="#060606"/>
</svg>
