<svg width="200" height="200" viewBox="0 0 200 200" fill="none" xmlns="http://www.w3.org/2000/svg">
<path d="M108.196 0.328891L112.227 0.742221L116.209 1.30667L120.142 2.03111L124.018 2.90666L127.836 3.92889L131.591 5.10222L135.284 6.41333L138.907 7.86222L142.458 9.44889L145.938 11.1689L149.338 13.0133L152.658 14.9911L155.893 17.0889L159.04 19.3022L162.098 21.6356L165.062 24.0844L167.929 26.64L170.693 29.3022L173.356 32.0667L175.916 34.9333L178.36 37.8978L180.693 40.9556L182.911 44.1022L185.009 47.3378L186.982 50.6578L188.831 54.0578L190.547 57.5378L192.133 61.0889L193.587 64.7111L194.898 68.4044L196.067 72.16L197.089 75.9778L197.964 79.8578L198.689 83.7867L199.258 87.7689L199.667 91.8L199.916 95.88L200 100L199.916 104.12L199.667 108.196L199.258 112.227L198.689 116.209L197.964 120.142L197.089 124.018L196.067 127.836L194.898 131.591L193.587 135.284L192.133 138.907L190.547 142.458L188.831 145.938L186.982 149.338L185.009 152.658L182.911 155.893L180.693 159.04L178.36 162.098L175.916 165.062L173.356 167.929L170.693 170.693L167.929 173.36L165.062 175.916L162.098 178.36L159.04 180.693L155.893 182.911L152.658 185.009L149.338 186.982L145.938 188.831L142.458 190.547L138.907 192.133L135.284 193.587L131.591 194.898L127.836 196.067L124.018 197.089L120.142 197.964L116.209 198.689L112.227 199.258L108.196 199.667L104.116 199.916L100 200L95.88 199.916L91.8 199.667L87.7689 199.258L83.7867 198.689L79.8533 197.964L75.9778 197.089L72.16 196.067L68.4044 194.898L64.7111 193.587L61.0889 192.133L57.5378 190.547L54.0578 188.831L50.6578 186.982L47.3378 185.009L44.1022 182.911L40.9556 180.693L37.8978 178.36L34.9333 175.916L32.0667 173.36L29.3022 170.693L26.64 167.929L24.08 165.062L21.6356 162.098L19.3022 159.04L17.0844 155.893L14.9911 152.658L13.0133 149.338L11.1689 145.938L9.44889 142.458L7.86222 138.907L6.41333 135.284L5.09778 131.591L3.92889 127.836L2.90666 124.018L2.03111 120.142L1.30666 116.209L0.737776 112.227L0.328888 108.196L0.0800001 104.12L0 100L0.0800001 95.88L0.328888 91.8L0.737776 87.7689L1.30666 83.7867L2.03111 79.8578L2.90666 75.9778L3.92889 72.16L5.09778 68.4044L6.41333 64.7111L7.86222 61.0889L9.44889 57.5378L11.1689 54.0578L13.0133 50.6578L14.9911 47.3378L17.0844 44.1022L19.3022 40.9556L21.6356 37.8978L24.08 34.9333L26.64 32.0667L29.3022 29.3022L32.0667 26.64L34.9333 24.0844L37.8978 21.6356L40.9556 19.3022L44.1022 17.0889L47.3378 14.9911L50.6578 13.0133L54.0578 11.1689L57.5378 9.44889L61.0889 7.86222L64.7111 6.41333L68.4044 5.10222L72.16 3.92889L75.9778 2.90666L79.8533 2.03111L83.7867 1.30667L87.7689 0.742221L91.8 0.328891L95.88 0.0800001L100 0L104.116 0.0800001L108.196 0.328891ZM93.6222 22.48L90.4889 22.7956L87.3911 23.24L84.3333 23.8L81.3156 24.4844L78.3467 25.28L75.4267 26.1867L72.5556 27.2089L69.7333 28.3378L66.9733 29.5689L64.2667 30.9067L61.6222 32.3467L59.04 33.88L56.5244 35.5111L54.0756 37.2356L51.6978 39.0489L49.3911 40.9511L47.1644 42.9422L45.0133 45.0133L42.9422 47.1644L40.9511 49.3911L39.0489 51.6978L37.2356 54.0756L35.5111 56.5244L33.88 59.04L32.3467 61.6222L30.9067 64.2667L29.5689 66.9733L28.3378 69.7378L27.2089 72.5555L26.1867 75.4267L25.28 78.3467L24.4844 81.3156L23.8 84.3333L23.24 87.3911L22.7956 90.4889L22.48 93.6222L22.2844 96.7956L22.2222 100L22.2844 103.204L22.48 106.373L22.7956 109.511L23.24 112.609L23.8 115.667L24.4844 118.68L25.28 121.649L26.1867 124.573L27.2089 127.444L28.3378 130.262L29.5689 133.022L30.9067 135.729L32.3467 138.373L33.88 140.956L35.5111 143.471L37.2356 145.92L39.0489 148.298L40.9511 150.604L42.9422 152.831L45.0133 154.987L47.1644 157.058L49.3911 159.044L51.6978 160.947L54.0756 162.76L56.5244 164.484L59.04 166.116L61.6222 167.653L64.2667 169.089L66.9733 170.427L69.7333 171.662L72.5556 172.787L75.4267 173.809L78.3467 174.72L81.3156 175.516L84.3333 176.196L87.3911 176.756L90.4889 177.2L93.6222 177.52L96.7956 177.711L100 177.778L103.2 177.711L106.373 177.52L109.511 177.2L112.609 176.756L115.667 176.196L118.68 175.516L121.649 174.72L124.569 173.809L127.44 172.787L130.262 171.662L133.022 170.427L135.729 169.089L138.373 167.653L140.956 166.116L143.471 164.484L145.92 162.76L148.298 160.947L150.604 159.044L152.831 157.058L154.982 154.987L157.053 152.831L159.044 150.604L160.947 148.298L162.76 145.92L164.484 143.471L166.116 140.956L167.653 138.373L169.089 135.729L170.427 133.022L171.658 130.262L172.787 127.444L173.809 124.573L174.716 121.649L175.516 118.68L176.196 115.667L176.756 112.609L177.2 109.511L177.516 106.373L177.711 103.204L177.778 100L177.711 96.7956L177.516 93.6222L177.2 90.4889L176.756 87.3911L176.196 84.3333L175.516 81.3156L174.716 78.3467L173.809 75.4267L172.787 72.5555L171.658 69.7378L170.427 66.9733L169.089 64.2667L167.653 61.6222L166.116 59.04L164.484 56.5244L162.76 54.0756L160.947 51.6978L159.044 49.3911L157.053 47.1644L154.982 45.0133L152.831 42.9422L150.604 40.9511L148.298 39.0489L145.92 37.2356L143.471 35.5111L140.956 33.88L138.373 32.3467L135.729 30.9067L133.022 29.5689L130.262 28.3378L127.44 27.2089L124.569 26.1867L121.649 25.28L118.68 24.4844L115.667 23.8L112.609 23.24L109.511 22.7956L106.373 22.48L103.2 22.2844L100 22.2222L96.7956 22.2844L93.6222 22.48Z" fill="#27AE60"/>
<path d="M153.538 95.4756L100.098 38.92L46.4622 95.2889L80.4 95.3467L80.2934 155.227L119.578 155.298L119.684 95.4178L153.538 95.4756Z" fill="#27AE60"/>
</svg>
